%TF.GenerationSoftware,KiCad,Pcbnew,(5.1.9)-1*%
%TF.CreationDate,2021-05-20T17:24:02+02:00*%
%TF.ProjectId,AR2ISS_Isolator,41523249-5353-45f4-9973-6f6c61746f72,rev?*%
%TF.SameCoordinates,Original*%
%TF.FileFunction,Soldermask,Bot*%
%TF.FilePolarity,Negative*%
%FSLAX46Y46*%
G04 Gerber Fmt 4.6, Leading zero omitted, Abs format (unit mm)*
G04 Created by KiCad (PCBNEW (5.1.9)-1) date 2021-05-20 17:24:02*
%MOMM*%
%LPD*%
G01*
G04 APERTURE LIST*
%ADD10C,4.500000*%
%ADD11R,1.700000X1.700000*%
%ADD12O,1.700000X1.700000*%
%ADD13C,3.100000*%
%ADD14C,1.900000*%
%ADD15C,1.300000*%
%ADD16C,1.524000*%
%ADD17C,1.600000*%
%ADD18R,1.600000X1.600000*%
%ADD19C,1.500000*%
%ADD20C,2.000000*%
%ADD21R,2.000000X2.000000*%
%ADD22R,1.750000X2.250000*%
%ADD23O,1.750000X2.250000*%
%ADD24O,1.500000X2.500000*%
%ADD25R,1.500000X2.500000*%
G04 APERTURE END LIST*
D10*
X206000000Y-57500000D03*
X106000000Y-57500000D03*
X206000000Y-142500000D03*
X106000000Y-142500000D03*
D11*
X192610000Y-70930000D03*
D12*
X192610000Y-68390000D03*
D13*
X205600000Y-88350000D03*
X205600000Y-75650000D03*
D14*
X202170000Y-90250000D03*
X202170000Y-73750000D03*
D15*
X203060000Y-78430000D03*
X201280000Y-79450000D03*
X203060000Y-80470000D03*
X201280000Y-81490000D03*
X203060000Y-82510000D03*
X201280000Y-83530000D03*
X203060000Y-84550000D03*
X201280000Y-85570000D03*
X196420000Y-88860000D03*
X196420000Y-86570000D03*
X196420000Y-77430000D03*
X196420000Y-75140000D03*
D12*
X71140000Y-70900000D03*
D11*
X71140000Y-68360000D03*
D12*
X71130000Y-80360000D03*
D11*
X71130000Y-77820000D03*
D12*
X71130000Y-61320000D03*
D11*
X71130000Y-58780000D03*
D12*
X71130000Y-89650000D03*
D11*
X71130000Y-87110000D03*
D12*
X192610000Y-91930000D03*
D11*
X192610000Y-94470000D03*
D12*
X192620000Y-83970000D03*
D11*
X192620000Y-86510000D03*
X192600000Y-78640000D03*
D12*
X192600000Y-76100000D03*
X192610000Y-125930000D03*
D11*
X192610000Y-128470000D03*
D12*
X192620000Y-117970000D03*
D11*
X192620000Y-120510000D03*
D12*
X192600000Y-110100000D03*
D11*
X192600000Y-112640000D03*
D12*
X192610000Y-102390000D03*
D11*
X192610000Y-104930000D03*
D16*
X55000000Y-103250001D03*
X60000000Y-99750001D03*
X55000000Y-96250000D03*
X60000000Y-92750000D03*
X55000000Y-135750001D03*
X60000000Y-132250001D03*
X55000000Y-128750000D03*
X60000000Y-125250000D03*
X55000000Y-119500004D03*
X60000000Y-116000004D03*
X55000000Y-112500003D03*
X60000000Y-109000003D03*
D17*
X142000000Y-140500000D03*
D18*
X142000000Y-143000000D03*
D17*
X150000000Y-140500000D03*
D18*
X150000000Y-143000000D03*
D17*
X170500000Y-136000000D03*
D18*
X168000000Y-136000000D03*
D17*
X151000000Y-58500000D03*
D18*
X151000000Y-56000000D03*
D17*
X143000000Y-58500000D03*
D18*
X143000000Y-56000000D03*
D17*
X170500000Y-64000000D03*
D18*
X168000000Y-64000000D03*
D17*
X137000000Y-139000000D03*
D18*
X134500000Y-139000000D03*
D17*
X113500000Y-139000000D03*
D18*
X116000000Y-139000000D03*
D17*
X113000000Y-61000000D03*
D18*
X115500000Y-61000000D03*
D17*
X136000000Y-61000000D03*
D18*
X133500000Y-61000000D03*
G36*
G01*
X57375000Y-142750000D02*
X58625000Y-142750000D01*
G75*
G02*
X59250000Y-143375000I0J-625000D01*
G01*
X59250000Y-144625000D01*
G75*
G02*
X58625000Y-145250000I-625000J0D01*
G01*
X57375000Y-145250000D01*
G75*
G02*
X56750000Y-144625000I0J625000D01*
G01*
X56750000Y-143375000D01*
G75*
G02*
X57375000Y-142750000I625000J0D01*
G01*
G37*
G36*
G01*
X57375000Y-139250000D02*
X58625000Y-139250000D01*
G75*
G02*
X59250000Y-139875000I0J-625000D01*
G01*
X59250000Y-141125000D01*
G75*
G02*
X58625000Y-141750000I-625000J0D01*
G01*
X57375000Y-141750000D01*
G75*
G02*
X56750000Y-141125000I0J625000D01*
G01*
X56750000Y-139875000D01*
G75*
G02*
X57375000Y-139250000I625000J0D01*
G01*
G37*
D19*
X58000000Y-140500000D03*
X58000000Y-144000000D03*
D12*
X148000000Y-103080000D03*
X145460000Y-103080000D03*
X148000000Y-100540000D03*
X145460000Y-100540000D03*
X148000000Y-98000000D03*
D11*
X145460000Y-98000000D03*
D13*
X205600000Y-125350000D03*
X205600000Y-112650000D03*
D14*
X202170000Y-127250000D03*
X202170000Y-110750000D03*
D15*
X203060000Y-115430000D03*
X201280000Y-116450000D03*
X203060000Y-117470000D03*
X201280000Y-118490000D03*
X203060000Y-119510000D03*
X201280000Y-120530000D03*
X203060000Y-121550000D03*
X201280000Y-122570000D03*
X196420000Y-125860000D03*
X196420000Y-123570000D03*
X196420000Y-114430000D03*
X196420000Y-112140000D03*
D13*
X54400000Y-67650000D03*
X54400000Y-80350000D03*
D14*
X57830000Y-65750000D03*
X57830000Y-82250000D03*
D15*
X56940000Y-77570000D03*
X58720000Y-76550000D03*
X56940000Y-75530000D03*
X58720000Y-74510000D03*
X56940000Y-73490000D03*
X58720000Y-72470000D03*
X56940000Y-71450000D03*
X58720000Y-70430000D03*
X63580000Y-67140000D03*
X63580000Y-69430000D03*
X63580000Y-78570000D03*
X63580000Y-80860000D03*
D20*
X100000000Y-109840000D03*
X94920000Y-109840000D03*
X100000000Y-114920000D03*
D21*
X100000000Y-120000000D03*
D20*
X94920000Y-114920000D03*
X94920000Y-120000000D03*
X100000000Y-112380000D03*
X94920000Y-112380000D03*
X85000000Y-109840000D03*
X79920000Y-109840000D03*
X85000000Y-114920000D03*
D21*
X85000000Y-120000000D03*
D20*
X79920000Y-114920000D03*
X79920000Y-120000000D03*
X85000000Y-112380000D03*
X79920000Y-112380000D03*
D22*
X157000000Y-144000000D03*
D23*
X159540000Y-144000000D03*
X162080000Y-144000000D03*
X164620000Y-144000000D03*
D22*
X158000000Y-59000000D03*
D23*
X160540000Y-59000000D03*
X163080000Y-59000000D03*
X165620000Y-59000000D03*
D12*
X73000000Y-114920000D03*
X73000000Y-117460000D03*
D11*
X73000000Y-120000000D03*
D24*
X122420000Y-139000000D03*
X124960000Y-139000000D03*
D25*
X127500000Y-139000000D03*
D24*
X127080000Y-61000000D03*
X124540000Y-61000000D03*
D25*
X122000000Y-61000000D03*
M02*
