M48
; DRILL file {KiCad (5.1.9)-1} date 05/16/21 21:10:10
; FORMAT={-:-/ absolute / metric / decimal}
; #@! TF.CreationDate,2021-05-16T21:10:10+02:00
; #@! TF.GenerationSoftware,Kicad,Pcbnew,(5.1.9)-1
FMAT,2
METRIC
T1C0.300
T2C0.400
T3C0.800
T4C0.900
T5C1.000
T6C1.016
T7C1.075
T8C1.200
T9C1.500
T10C3.100
T11C3.500
%
G90
G05
T1
X66.0Y-72.75
X66.0Y-75.25
X76.13Y-59.78
X76.13Y-78.82
X76.13Y-88.11
X76.14Y-69.36
X78.88Y-58.03
X78.88Y-61.53
X78.88Y-77.07
X78.88Y-80.57
X78.88Y-86.36
X78.88Y-89.86
X78.89Y-67.61
X78.89Y-71.11
X85.0Y-104.5
X89.5Y-100.75
X90.6Y-91.0
X90.765Y-62.702
X90.797Y-72.212
X90.8Y-61.0
X90.8Y-79.8
X90.8Y-81.8
X91.0Y-70.4
X91.0Y-89.2
X92.0Y-98.25
X92.82Y-57.62
X92.82Y-58.37
X92.82Y-67.12
X92.82Y-67.87
X92.82Y-76.62
X92.82Y-77.37
X92.82Y-86.12
X92.82Y-86.87
X97.0Y-96.75
X97.07Y-64.87
X97.07Y-65.62
X97.07Y-74.37
X97.07Y-75.12
X97.07Y-83.87
X97.07Y-84.62
X97.07Y-93.37
X97.07Y-94.12
X97.5Y-56.0
X100.75Y-80.65
X100.75Y-82.0
X101.75Y-80.0
X101.75Y-82.0
X102.55Y-80.0
X102.75Y-82.5
X122.0Y-56.0
X122.0Y-57.0
X150.5Y-113.3
X151.0Y-98.75
X151.25Y-101.0
X151.25Y-114.15
X152.0Y-96.5
X152.0Y-100.25
X152.75Y-96.0
X152.8Y-100.2
X152.8Y-113.4
X153.4Y-82.8
X153.4Y-114.2
X154.2Y-83.2
X154.5Y-117.7
X155.0Y-80.8
X155.8Y-81.282
X157.0Y-77.2
X157.0Y-84.8
X157.6Y-110.2
X163.0Y-145.75
X163.2Y-81.6
X163.2Y-82.4
X163.2Y-119.0
X163.2Y-119.8
X163.25Y-141.0
X163.25Y-141.75
X163.4Y-86.2
X163.4Y-87.0
X163.5Y-63.5
X163.5Y-64.25
X163.5Y-65.0
X163.5Y-65.75
X163.75Y-145.75
X164.0Y-141.0
X164.0Y-141.75
X164.5Y-56.75
X164.5Y-57.5
X165.0Y-64.25
X165.0Y-65.0
X165.0Y-65.75
X165.0Y-66.5
X165.0Y-78.0
X165.0Y-109.2
X165.0Y-118.6
X165.0Y-136.5
X165.0Y-137.25
X165.8Y-84.0
X165.8Y-86.2
X165.8Y-119.0
X165.8Y-119.8
X166.0Y-91.0
X166.0Y-98.25
X166.0Y-132.25
X166.154Y-116.8
X166.4Y-83.2
X166.6Y-82.4
X166.6Y-111.0
X166.75Y-98.25
X166.75Y-132.25
X166.8Y-77.0
X166.8Y-111.8
X166.8Y-112.8
X166.8Y-113.6
X167.6Y-125.0
X167.8Y-102.2
X167.8Y-117.4
X169.2Y-91.0
X169.4Y-75.8
X170.6Y-84.8
X171.4Y-84.8
X173.4Y-91.2
X173.475Y-68.325
X173.475Y-75.725
X173.475Y-83.725
X174.2Y-102.2
X174.4Y-109.8
X174.4Y-117.4
X174.4Y-125.0
X184.85Y-75.89
X184.85Y-79.39
X184.85Y-109.89
X184.85Y-113.39
X184.86Y-68.18
X184.86Y-71.68
X184.86Y-91.72
X184.86Y-95.22
X184.86Y-102.18
X184.86Y-105.68
X184.86Y-125.72
X184.86Y-129.22
X184.87Y-83.76
X184.87Y-87.26
X184.87Y-117.76
X184.87Y-121.26
X187.6Y-77.64
X187.6Y-111.64
X187.61Y-69.93
X187.61Y-93.47
X187.61Y-103.93
X187.61Y-127.47
X187.62Y-85.51
X187.62Y-119.51
X197.5Y-117.25
X198.5Y-80.75
T2
X85.13Y-59.87
X85.13Y-78.91
X85.13Y-88.2
X85.14Y-69.45
X90.0Y-112.0
X103.0Y-114.0
X103.0Y-115.0
X178.6Y-77.55
X178.6Y-111.55
X178.61Y-69.84
X178.61Y-93.38
X178.61Y-103.84
X178.61Y-127.38
X178.62Y-85.42
X178.62Y-119.42
T3
X113.0Y-61.0
X113.5Y-139.0
X115.5Y-61.0
X116.0Y-139.0
X133.5Y-61.0
X134.5Y-139.0
X136.0Y-61.0
X137.0Y-139.0
X142.0Y-140.5
X142.0Y-143.0
X143.0Y-56.0
X143.0Y-58.5
X150.0Y-140.5
X150.0Y-143.0
X151.0Y-56.0
X151.0Y-58.5
X168.0Y-64.0
X168.0Y-136.0
X170.5Y-64.0
X170.5Y-136.0
T4
X56.94Y-71.45
X56.94Y-73.49
X56.94Y-75.53
X56.94Y-77.57
X58.72Y-70.43
X58.72Y-72.47
X58.72Y-74.51
X58.72Y-76.55
X63.58Y-67.14
X63.58Y-69.43
X63.58Y-78.57
X63.58Y-80.86
X196.42Y-75.14
X196.42Y-77.43
X196.42Y-86.57
X196.42Y-88.86
X196.42Y-112.14
X196.42Y-114.43
X196.42Y-123.57
X196.42Y-125.86
X201.28Y-79.45
X201.28Y-81.49
X201.28Y-83.53
X201.28Y-85.57
X201.28Y-116.45
X201.28Y-118.49
X201.28Y-120.53
X201.28Y-122.57
X203.06Y-78.43
X203.06Y-80.47
X203.06Y-82.51
X203.06Y-84.55
X203.06Y-115.43
X203.06Y-117.47
X203.06Y-119.51
X203.06Y-121.55
T5
X71.13Y-58.78
X71.13Y-61.32
X71.13Y-77.82
X71.13Y-80.36
X71.13Y-87.11
X71.13Y-89.65
X71.14Y-68.36
X71.14Y-70.9
X73.0Y-114.92
X73.0Y-117.46
X73.0Y-120.0
X79.92Y-109.84
X79.92Y-112.38
X79.92Y-114.92
X79.92Y-120.0
X85.0Y-109.84
X85.0Y-112.38
X85.0Y-114.92
X85.0Y-120.0
X94.92Y-109.84
X94.92Y-112.38
X94.92Y-114.92
X94.92Y-120.0
X100.0Y-109.84
X100.0Y-112.38
X100.0Y-114.92
X100.0Y-120.0
X122.0Y-61.0
X122.42Y-139.0
X124.54Y-61.0
X124.96Y-139.0
X127.08Y-61.0
X127.5Y-139.0
X145.46Y-98.0
X145.46Y-100.54
X145.46Y-103.08
X148.0Y-98.0
X148.0Y-100.54
X148.0Y-103.08
X192.6Y-76.1
X192.6Y-78.64
X192.6Y-110.1
X192.6Y-112.64
X192.61Y-68.39
X192.61Y-70.93
X192.61Y-91.93
X192.61Y-94.47
X192.61Y-102.39
X192.61Y-104.93
X192.61Y-125.93
X192.61Y-128.47
X192.62Y-83.97
X192.62Y-86.51
X192.62Y-117.97
X192.62Y-120.51
T6
X55.0Y-96.25
X55.0Y-103.25
X55.0Y-112.5
X55.0Y-119.5
X55.0Y-128.75
X55.0Y-135.75
X60.0Y-92.75
X60.0Y-99.75
X60.0Y-109.0
X60.0Y-116.0
X60.0Y-125.25
X60.0Y-132.25
T7
X157.0Y-144.0
X158.0Y-59.0
X159.54Y-144.0
X160.54Y-59.0
X162.08Y-144.0
X163.08Y-59.0
X164.62Y-144.0
X165.62Y-59.0
T8
X58.0Y-140.5
X58.0Y-144.0
T9
X57.83Y-65.75
X57.83Y-82.25
X202.17Y-73.75
X202.17Y-90.25
X202.17Y-110.75
X202.17Y-127.25
T10
X54.4Y-67.65
X54.4Y-80.35
X205.6Y-75.65
X205.6Y-88.35
X205.6Y-112.65
X205.6Y-125.35
T11
X106.0Y-57.5
X106.0Y-142.5
X206.0Y-57.5
X206.0Y-142.5
T0
M30
